<mxfile host="app.diagrams.net" agent="Mozilla/5.0 (Windows NT 10.0; Win64; x64) AppleWebKit/537.36 (KHTML, like Gecko) Chrome/135.0.0.0 Safari/537.36" version="26.2.14">
  <diagram name="PÃ¡gina-1" id="XukM9mgDTer4zMXausgr">
    <mxGraphModel dx="1426" dy="777" grid="1" gridSize="10" guides="1" tooltips="1" connect="1" arrows="1" fold="1" page="1" pageScale="1" pageWidth="827" pageHeight="1169" math="0" shadow="0">
      <root>
        <mxCell id="0" />
        <mxCell id="1" parent="0" />
        <mxCell id="HXaScOyWl88TCiheDb_o-5" value="" style="edgeStyle=orthogonalEdgeStyle;rounded=0;orthogonalLoop=1;jettySize=auto;html=1;" edge="1" parent="1" source="HXaScOyWl88TCiheDb_o-1" target="HXaScOyWl88TCiheDb_o-4">
          <mxGeometry relative="1" as="geometry" />
        </mxCell>
        <mxCell id="HXaScOyWl88TCiheDb_o-1" value="INICIO" style="strokeWidth=2;html=1;shape=mxgraph.flowchart.start_1;whiteSpace=wrap;fillColor=#d5e8d4;strokeColor=#82b366;" vertex="1" parent="1">
          <mxGeometry x="360" y="370" width="100" height="60" as="geometry" />
        </mxCell>
        <mxCell id="HXaScOyWl88TCiheDb_o-2" value="FIM" style="strokeWidth=2;html=1;shape=mxgraph.flowchart.start_1;whiteSpace=wrap;fillColor=#d5e8d4;strokeColor=#82b366;" vertex="1" parent="1">
          <mxGeometry x="360" y="1050" width="100" height="60" as="geometry" />
        </mxCell>
        <mxCell id="HXaScOyWl88TCiheDb_o-7" value="" style="edgeStyle=orthogonalEdgeStyle;rounded=0;orthogonalLoop=1;jettySize=auto;html=1;" edge="1" parent="1" source="HXaScOyWl88TCiheDb_o-4">
          <mxGeometry relative="1" as="geometry">
            <mxPoint x="410" y="570" as="targetPoint" />
          </mxGeometry>
        </mxCell>
        <mxCell id="HXaScOyWl88TCiheDb_o-4" value="A[ ]" style="html=1;strokeWidth=2;shape=manualInput;whiteSpace=wrap;rounded=1;size=26;arcSize=11;fillColor=#dae8fc;strokeColor=#6c8ebf;" vertex="1" parent="1">
          <mxGeometry x="360" y="460" width="100" height="60" as="geometry" />
        </mxCell>
        <mxCell id="HXaScOyWl88TCiheDb_o-11" value="" style="edgeStyle=orthogonalEdgeStyle;rounded=0;orthogonalLoop=1;jettySize=auto;html=1;" edge="1" parent="1" source="HXaScOyWl88TCiheDb_o-8" target="HXaScOyWl88TCiheDb_o-10">
          <mxGeometry relative="1" as="geometry" />
        </mxCell>
        <mxCell id="HXaScOyWl88TCiheDb_o-8" value="I=1, I &amp;lt;=TAMANHO - 1, I++" style="shape=hexagon;perimeter=hexagonPerimeter2;whiteSpace=wrap;html=1;fixedSize=1;fillColor=#fff2cc;strokeColor=#d6b656;" vertex="1" parent="1">
          <mxGeometry x="325" y="570" width="170" height="40" as="geometry" />
        </mxCell>
        <mxCell id="HXaScOyWl88TCiheDb_o-12" style="edgeStyle=orthogonalEdgeStyle;rounded=0;orthogonalLoop=1;jettySize=auto;html=1;exitX=1;exitY=0.5;exitDx=0;exitDy=0;entryX=1;entryY=0.5;entryDx=0;entryDy=0;" edge="1" parent="1" source="HXaScOyWl88TCiheDb_o-10" target="HXaScOyWl88TCiheDb_o-8">
          <mxGeometry relative="1" as="geometry" />
        </mxCell>
        <mxCell id="HXaScOyWl88TCiheDb_o-14" value="" style="edgeStyle=orthogonalEdgeStyle;rounded=0;orthogonalLoop=1;jettySize=auto;html=1;" edge="1" parent="1" source="HXaScOyWl88TCiheDb_o-10" target="HXaScOyWl88TCiheDb_o-13">
          <mxGeometry relative="1" as="geometry" />
        </mxCell>
        <mxCell id="HXaScOyWl88TCiheDb_o-10" value="J=2, I &amp;lt;=TAMANHO, J++" style="shape=hexagon;perimeter=hexagonPerimeter2;whiteSpace=wrap;html=1;fixedSize=1;fillColor=#fff2cc;strokeColor=#d6b656;" vertex="1" parent="1">
          <mxGeometry x="325" y="650" width="170" height="40" as="geometry" />
        </mxCell>
        <mxCell id="HXaScOyWl88TCiheDb_o-16" value="" style="edgeStyle=orthogonalEdgeStyle;rounded=0;orthogonalLoop=1;jettySize=auto;html=1;" edge="1" parent="1" source="HXaScOyWl88TCiheDb_o-13" target="HXaScOyWl88TCiheDb_o-15">
          <mxGeometry relative="1" as="geometry" />
        </mxCell>
        <mxCell id="HXaScOyWl88TCiheDb_o-20" value="S" style="edgeLabel;html=1;align=center;verticalAlign=middle;resizable=0;points=[];" vertex="1" connectable="0" parent="HXaScOyWl88TCiheDb_o-16">
          <mxGeometry x="0.28" y="-4" relative="1" as="geometry">
            <mxPoint as="offset" />
          </mxGeometry>
        </mxCell>
        <mxCell id="HXaScOyWl88TCiheDb_o-21" style="edgeStyle=orthogonalEdgeStyle;rounded=0;orthogonalLoop=1;jettySize=auto;html=1;exitX=0;exitY=0.5;exitDx=0;exitDy=0;entryX=0;entryY=0.5;entryDx=0;entryDy=0;" edge="1" parent="1" source="HXaScOyWl88TCiheDb_o-13" target="HXaScOyWl88TCiheDb_o-10">
          <mxGeometry relative="1" as="geometry" />
        </mxCell>
        <mxCell id="HXaScOyWl88TCiheDb_o-22" value="N" style="edgeLabel;html=1;align=center;verticalAlign=middle;resizable=0;points=[];" vertex="1" connectable="0" parent="HXaScOyWl88TCiheDb_o-21">
          <mxGeometry x="-0.7268" y="2" relative="1" as="geometry">
            <mxPoint as="offset" />
          </mxGeometry>
        </mxCell>
        <mxCell id="HXaScOyWl88TCiheDb_o-13" value="A[I] = A[J]" style="rhombus;whiteSpace=wrap;html=1;fillColor=#fff2cc;strokeColor=#d6b656;" vertex="1" parent="1">
          <mxGeometry x="370" y="750" width="80" height="80" as="geometry" />
        </mxCell>
        <mxCell id="HXaScOyWl88TCiheDb_o-18" value="" style="edgeStyle=orthogonalEdgeStyle;rounded=0;orthogonalLoop=1;jettySize=auto;html=1;" edge="1" parent="1" source="HXaScOyWl88TCiheDb_o-15" target="HXaScOyWl88TCiheDb_o-17">
          <mxGeometry relative="1" as="geometry" />
        </mxCell>
        <mxCell id="HXaScOyWl88TCiheDb_o-15" value="A[J]" style="strokeWidth=2;html=1;shape=mxgraph.flowchart.display;whiteSpace=wrap;fillColor=#e1d5e7;strokeColor=#9673a6;" vertex="1" parent="1">
          <mxGeometry x="360" y="860" width="100" height="60" as="geometry" />
        </mxCell>
        <mxCell id="HXaScOyWl88TCiheDb_o-19" value="" style="edgeStyle=orthogonalEdgeStyle;rounded=0;orthogonalLoop=1;jettySize=auto;html=1;" edge="1" parent="1" source="HXaScOyWl88TCiheDb_o-17" target="HXaScOyWl88TCiheDb_o-2">
          <mxGeometry relative="1" as="geometry" />
        </mxCell>
        <mxCell id="HXaScOyWl88TCiheDb_o-17" value="" style="verticalLabelPosition=bottom;verticalAlign=top;html=1;shape=mxgraph.flowchart.on-page_reference;fillColor=#f5f5f5;gradientColor=#b3b3b3;strokeColor=#666666;" vertex="1" parent="1">
          <mxGeometry x="395" y="980" width="30" height="30" as="geometry" />
        </mxCell>
        <mxCell id="HXaScOyWl88TCiheDb_o-23" style="edgeStyle=orthogonalEdgeStyle;rounded=0;orthogonalLoop=1;jettySize=auto;html=1;exitX=0;exitY=0.5;exitDx=0;exitDy=0;entryX=0;entryY=0.5;entryDx=0;entryDy=0;entryPerimeter=0;" edge="1" parent="1" source="HXaScOyWl88TCiheDb_o-8" target="HXaScOyWl88TCiheDb_o-17">
          <mxGeometry relative="1" as="geometry">
            <Array as="points">
              <mxPoint x="250" y="590" />
              <mxPoint x="250" y="995" />
            </Array>
          </mxGeometry>
        </mxCell>
      </root>
    </mxGraphModel>
  </diagram>
</mxfile>
